<?xml version="1.0" encoding="utf-8"?>
<svg xmlns="http://www.w3.org/2000/svg" xmlns:xlink="http://www.w3.org/1999/xlink"
    style="width:0;height:0;position:absolute;overflow:hidden;" version="1.1"
    preserveAspectRatio="xMidYMid meet">
    <defs>
        <symbol id="add" viewBox="0 0 1088 1088">
            <path fill="currentColor"
                d="M490.667 725.333v-554.667h42.667v554.667zM234.667 469.333v-42.667h554.667v42.667h-533.333z" />
        </symbol>
        <symbol id="close" viewBox="0 0 1088 1088">
            <path fill="currentColor"
                d="M698.167 688.5l-426.667-426.667c-6.957-6.95-11.261-16.556-11.261-27.167s4.304-20.216 11.261-27.166v0c6.95-6.957 16.556-11.261 27.167-11.261s20.216 4.304 27.166 11.261v0l426.667 426.667c6.957 6.95 11.261 16.556 11.261 27.167s-4.304 20.216-11.261 27.166v0c-6.95 6.957-16.556 11.261-27.167 11.261s-20.216-4.304-27.166-11.261v0zM271.5 688.5c-6.957-6.95-11.261-16.556-11.261-27.167s4.304-20.216 11.261-27.166v0l426.667-426.667c6.95-6.957 16.556-11.261 27.167-11.261s20.216 4.304 27.166 11.261v0c6.957 6.95 11.261 16.556 11.261 27.167s-4.304 20.216-11.261 27.166v0l-426.667 426.667c-6.95 6.957-16.556 11.261-27.167 11.261s-20.216-4.304-27.166-11.261v0z" />
        </symbol>
        <symbol id="edit" viewBox="0 0 1088 1088">
            <path fill="currentColor"
                d="M192 298.667l21.333 21.333 170.667-170.667-21.333-21.333-170.667 170.667zM618.667 725.333l21.333 21.333 170.667-170.667-21.333-21.333-170.667 170.667zM341.333 85.333c-11.782 0-21.333-9.551-21.333-21.333v0c0-11.782 9.551-21.333 21.333-21.333v0h128c11.782 0 21.333 9.551 21.333 21.333v0c0 11.782-9.551 21.333-21.333 21.333v0zM554.667 85.333c-11.782 0-21.333-9.551-21.333-21.333v0c0-11.782 9.551-21.333 21.333-21.333v0h128c11.782 0 21.333 9.551 21.333 21.333v0c0 11.782-9.551 21.333-21.333 21.333v0zM768 85.333c-11.782 0-21.333-9.551-21.333-21.333v0c0-11.782 9.551-21.333 21.333-21.333v0h128c11.782 0 21.333 9.551 21.333 21.333v0c0 11.782-9.551 21.333-21.333 21.333v0zM725.333 814.333c-21.371 0-38.847-9.381-52-19.417-12.339-9.411-24.129-21.377-37.5-34.75l-436-436c-0.412-0.414-0.875-0.877-1.333-1.333-6.935-6.919-14.738-14.341-20.917-25.25-6.18-10.914-8.552-21.416-10.917-30.917-0.154-0.623-0.337-1.26-0.5-1.917l-28.25-113.25c-0.096-0.384-0.233-0.761-0.333-1.167-1.671-6.668-3.75-14.403-4.583-22.917-0.903-9.237-0.534-28.716 14.583-43.833s34.665-15.492 43.917-14.583c8.484 0.836 16.181 2.914 22.833 4.583 0.396 0.098 0.774 0.235 1.167 0.333h0.083l0.917 0.252 112.25 28.083c0.585 0.145 1.258 0.252 1.917 0.418 9.507 2.365 20.003 4.735 30.917 10.917 10.922 6.18 18.337 13.992 25.25 20.917 0.421 0.422 0.901 0.898 1.417 1.417l435.917 435.914c13.378 13.374 25.342 25.171 34.75 37.5 10.036 13.154 19.417 30.629 19.417 52s-9.381 38.847-19.417 52c-5.742 7.525-13.78 15.31-21.167 22.917l0.5 0.5-30.167 30.167-0.252-0.25c-10.454 10.417-20.465 20.597-30.498 28.25-13.153 10.036-30.629 19.417-52 19.417zM725.333 771.667c9.383 0 16.886-3.585 26.167-10.667 8.602-6.561 19.794-17.626 33.167-31l9.333-9.333c13.373-13.373 24.436-24.565 31-33.167 7.082-9.282 10.667-16.785 10.667-26.167s-3.585-16.885-10.667-26.167c-6.566-8.604-17.626-19.797-31-33.167l-436-436c-0.426-0.428-0.913-0.91-1.417-1.417-6.86-6.868-11.669-11.383-16-13.833h-0.083c-4.364-2.471-10.666-4.304-20.167-6.667-0.611-0.154-1.212-0.324-1.917-0.5l-113.25-28.25c-0.363-0.090-0.717-0.243-1.083-0.333h-0.083c-6.679-1.676-13.223-3.164-16.667-3.5h-0.083c-3.952-0.388-6.747-0.503-9.5 2.25s-2.639 5.61-2.25 9.583c0.337 3.446 1.825 9.98 3.5 16.667v0.085c0.090 0.363 0.157 0.716 0.25 1.083l28.333 113.25c0.159 0.64 0.339 1.268 0.5 1.917 2.366 9.503 4.198 15.806 6.667 20.167 2.458 4.341 6.969 9.231 13.833 16.083l0.083 0.085c0.446 0.443 0.917 0.914 1.417 1.417l435.917 435.912c13.372 13.374 24.564 24.439 33.167 31 9.281 7.082 16.784 10.667 26.167 10.667z" />
        </symbol>
        <symbol id="info" viewBox="0 0 1088 1088">
            <path fill="currentColor"
                d="M512 853.333c-223.607 0-405.333-181.727-405.333-405.333s181.727-405.333 405.333-405.333c223.607 0 405.333 181.727 405.333 405.333s-181.727 405.333-405.333 405.333zM512 810.667c200.548 0 362.667-162.119 362.667-362.667s-162.119-362.667-362.667-362.667c-200.548 0-362.667 162.119-362.667 362.667s162.119 362.667 362.667 362.667zM533.333 640c0-11.782-9.553-21.333-21.333-21.333s-21.333 9.551-21.333 21.333c0 11.782 9.553 21.333 21.333 21.333s21.333-9.551 21.333-21.333zM490.667 533.333v-298.667h42.667v298.667z" />
        </symbol>
        <symbol id="parameters" viewBox="0 0 1088 1088">
            <path fill="currentColor"
                d="M512 768c-11.782 0-21.333-9.551-21.333-21.333v0c0-11.782 9.551-21.333 21.333-21.333v0h341.333c11.782 0 21.333 9.551 21.333 21.333v0c0 11.782-9.551 21.333-21.333 21.333v0zM170.667 170.667c-11.782 0-21.333-9.551-21.333-21.333v0c0-11.782 9.551-21.333 21.333-21.333v0h128c11.782 0 21.333 9.551 21.333 21.333v0c0 11.782-9.551 21.333-21.333 21.333v0zM170.667 768c-11.782 0-21.333-9.551-21.333-21.333v0c0-11.782 9.551-21.333 21.333-21.333v0h170.667c11.782 0 21.333 9.551 21.333 21.333v0c0 11.782-9.551 21.333-21.333 21.333v0zM469.333 170.667c-11.782 0-21.333-9.551-21.333-21.333v0c0-11.782 9.551-21.333 21.333-21.333v0h384c11.782 0 21.333 9.551 21.333 21.333v0c0 11.782-9.551 21.333-21.333 21.333v0zM725.333 469.333c-11.782 0-21.333-9.551-21.333-21.333v0c0-11.782 9.551-21.333 21.333-21.333v0h128c11.782 0 21.333 9.551 21.333 21.333v0c0 11.782-9.551 21.333-21.333 21.333v0zM170.667 469.333c-11.782 0-21.333-9.551-21.333-21.333v0c0-11.782 9.551-21.333 21.333-21.333v0h384c11.782 0 21.333 9.551 21.333 21.333v0c0 11.782-9.551 21.333-21.333 21.333v0zM533.333 746.667c0 58.658-48.009 106.667-106.667 106.667s-106.667-48.009-106.667-106.667c0-58.658 48.009-106.667 106.667-106.667s106.667 48.009 106.667 106.667zM490.667 746.667c0-35.599-28.401-64-64-64s-64 28.401-64 64c0 35.599 28.401 64 64 64s64-28.401 64-64zM746.667 448c0 58.658-48.009 106.667-106.667 106.667s-106.667-48.009-106.667-106.667c0-58.658 48.009-106.667 106.667-106.667s106.667 48.009 106.667 106.667zM704 448c0-35.599-28.401-64-64-64s-64 28.401-64 64c0 35.599 28.401 64 64 64s64-28.401 64-64zM490.667 149.333c0 58.658-48.009 106.667-106.667 106.667s-106.667-48.009-106.667-106.667c0-58.658 48.009-106.667 106.667-106.667s106.667 48.009 106.667 106.667zM448 149.333c0-35.599-28.401-64-64-64s-64 28.401-64 64c0 35.599 28.401 64 64 64s64-28.401 64-64z" />
        </symbol>
        <symbol id="remove" viewBox="0 0 1088 1088">
            <path fill="currentColor"
                d="M512 853.333c-223.607 0-405.333-181.727-405.333-405.333s181.727-405.333 405.333-405.333c223.607 0 405.333 181.727 405.333 405.333s-181.727 405.333-405.333 405.333zM512 810.667c200.548 0 362.667-162.119 362.667-362.667s-162.119-362.667-362.667-362.667c-200.548 0-362.667 162.119-362.667 362.667s162.119 362.667 362.667 362.667zM320 469.333v-42.667h384v42.667z" />
        </symbol>
        <symbol id="settings" viewBox="0 0 1088 1088">
            <path fill="currentColor"
                d="M603.14 816.579v0zM596.642 851.558v0zM615.727 754.435v0zM655.339 738.028v0zM708.177 773.072v0zM737.506 793.208v0zM767.454 791.715v0zM794.637 768.759v0zM832.759 730.638v0zM855.714 703.456v0zM857.207 673.509v0zM837.069 644.177v0zM802.027 591.336v0zM818.432 551.726v0zM880.576 539.142v0zM915.558 532.642v0zM935.676 510.409v0zM935.68 385.596v0zM915.554 363.358v0zM880.58 356.86l-2.121 21.227-0.695-0.068-0.691-0.115 3.507-21.043zM880.58 356.86l2.125-21.231 0.695 0.073 0.687 0.115-3.507 21.043zM818.453 344.282v0zM802.044 304.657v0zM837.077 251.836v0zM857.207 222.515v0zM855.714 192.559v0zM832.764 165.385v0zM794.637 127.258v0zM767.458 104.303v0zM737.51 102.81v0zM708.177 122.948l13.513 16.512-0.183 0.145-13.329-16.657zM708.177 122.948l-13.508-16.512 0.183-0.145 13.325 16.657zM655.339 157.99v0zM615.727 141.585v0zM603.145 79.433v0zM596.638 44.437v0zM574.413 24.324v0zM449.591 24.324v0zM427.358 44.442v0zM420.858 79.424v0zM408.274 141.568v0zM368.664 157.973v0zM315.822 122.927l-13.509 16.512-0.338-0.277-0.326-0.29 14.173-15.945zM315.821 122.927l13.509-16.508 0.338 0.273 0.326 0.29-14.173 15.945zM286.489 102.793v0zM256.543 104.286v0zM229.359 127.241v0zM191.239 165.363v0zM168.283 192.542v0zM166.79 222.49v0zM186.927 251.823v0zM221.972 304.666v0zM205.565 344.273v0zM143.421 356.86v0zM108.442 363.358v0zM88.322 385.591v0zM88.323 510.413v0zM108.438 532.638v0zM143.426 539.143v21.333h-1.064l-1.059-0.106 2.123-21.227zM143.427 539.143v-21.332h1.064l1.059 0.102-2.123 21.229zM205.586 551.731v0zM221.989 591.332v0zM186.935 644.189v0zM166.79 673.534v0zM168.283 703.47v0zM191.246 730.663v0zM229.361 768.778v0zM256.545 791.734v0zM286.491 793.228v0zM315.827 773.088v0zM368.659 738.045v0zM408.28 754.457v0zM420.858 816.584v0zM427.358 851.554v0zM449.596 871.68v0zM574.409 871.678v0zM624.371 818.701c-0.9 8.97-1.664 16.736-2.739 23.129-1.109 6.604-2.748 13.139-6.033 19.506l-37.918-19.558c0.439-0.856 1.126-2.56 1.873-7.014 0.785-4.663 1.408-10.776 2.359-20.309l42.458 4.245zM632.687 767.374c-0.482 0.633-2.048 3.241-3.691 12.38-1.609 8.936-2.842 21.077-4.625 38.947l-42.458-4.245c1.715-17.154 3.115-31.28 5.090-42.258 1.937-10.774 4.915-21.727 11.759-30.702l33.924 25.878zM652.493 759.171c-7.595-1.022-15.159 2.11-19.806 8.204l-33.924-25.878c13.948-18.282 36.629-27.677 59.418-24.611l-5.687 42.286zM694.669 789.583c-13.901-11.372-23.356-19.088-30.81-24.269-7.629-5.3-10.577-6.037-11.366-6.143l5.687-42.286c11.187 1.505 21.039 7.145 30.025 13.393 9.161 6.365 20.139 15.367 33.481 26.283l-27.017 33.022zM731.017 813.53c-6.827-2.18-12.608-5.641-18.061-9.527-5.282-3.762-11.311-8.712-18.287-14.42l27.017-33.022c7.415 6.067 12.177 9.949 16.030 12.693 3.678 2.621 5.367 3.34 6.285 3.633l-12.983 40.643zM775.936 811.289c-14.208 6.157-30.17 6.953-44.919 2.24l12.983-40.643c4.915 1.571 10.236 1.306 14.972-0.747l16.964 39.149zM809.719 783.844c-6.37 6.374-11.883 11.9-16.764 16.168-5.039 4.409-10.445 8.428-17.020 11.277l-16.964-39.149c0.887-0.383 2.496-1.267 5.892-4.241 3.563-3.114 7.915-7.45 14.686-14.225l30.17 30.17zM847.842 745.723l-38.123 38.121-30.17-30.17 38.123-38.121 30.17 30.17zM875.29 711.938c-2.85 6.574-6.869 11.982-11.277 17.021-4.271 4.88-9.796 10.39-16.171 16.764l-30.17-30.17c6.775-6.775 11.11-11.127 14.225-14.686 2.974-3.399 3.857-5.009 4.241-5.893l39.151 16.964zM877.53 667.017c4.71 14.751 3.917 30.711-2.24 44.921l-39.151-16.963c2.052-4.736 2.317-10.057 0.747-14.974l40.644-12.983zM853.581 630.668c5.709 6.977 10.658 13.009 14.421 18.289 3.883 5.454 7.347 11.234 9.527 18.059l-40.644 12.984c-0.294-0.918-1.011-2.607-3.635-6.285-2.743-3.852-6.626-8.614-12.693-16.029l33.024-27.018zM823.168 588.492c0.107 0.789 0.845 3.739 6.144 11.365 5.18 7.456 12.898 16.911 24.269 30.81l-33.024 27.018c-10.914-13.343-19.917-24.32-26.283-33.479-6.246-8.989-11.887-18.839-13.393-30.027l42.287-5.688zM831.373 568.687c-6.097 4.649-9.225 12.209-8.205 19.805l-42.287 5.688c-3.063-22.788 6.332-45.469 24.61-59.415l25.882 33.922zM882.701 560.37c-17.873 1.787-30.012 3.017-38.95 4.625-9.139 1.645-11.746 3.209-12.378 3.692l-25.882-33.922c8.977-6.846 19.93-9.824 30.703-11.761 10.978-1.975 25.105-3.375 42.261-5.090l4.245 42.456zM925.338 551.6c-6.366 3.284-12.902 4.925-19.507 6.033-6.396 1.073-14.161 1.839-23.13 2.736l-4.245-42.456c9.532-0.951 15.646-1.574 20.309-2.359 4.454-0.747 6.157-1.434 7.014-1.873l19.558 37.919zM955.516 518.255c-5.692 14.4-16.414 26.246-30.178 33.345l-19.558-37.919c4.587-2.368 8.162-6.315 10.061-11.115l39.676 15.689zM960 474.957c0 9.011 0.013 16.815-0.422 23.287-0.444 6.682-1.425 13.346-4.062 20.011l-39.676-15.689c0.354-0.896 0.866-2.662 1.169-7.168 0.311-4.719 0.324-10.863 0.324-20.442h42.667zM960 421.039v53.918h-42.667v-53.918h42.667zM955.52 377.754c2.633 6.66 3.614 13.325 4.058 20.006 0.435 6.464 0.422 14.268 0.422 23.279h-42.667c0-9.579-0.013-15.718-0.324-20.437-0.303-4.506-0.815-6.268-1.169-7.164l39.68-15.684zM925.333 344.397c13.764 7.1 24.491 18.953 30.187 33.357l-39.68 15.684c-1.899-4.804-5.474-8.751-10.061-11.119l19.554-37.922zM882.705 335.629c8.969 0.9 16.73 1.664 23.125 2.739 6.601 1.105 13.137 2.748 19.503 6.029l-19.554 37.922c-0.858-0.444-2.56-1.126-7.014-1.873-4.663-0.785-10.773-1.408-20.305-2.359l4.245-42.458zM884.087 335.817v0 0zM831.39 327.317c0.636 0.482 3.243 2.048 12.378 3.691 8.934 1.609 21.073 2.837 38.938 4.621l-4.245 42.458c-17.152-1.715-31.27-3.11-42.249-5.086-10.769-1.937-21.717-4.911-30.69-11.755l25.869-33.929zM823.185 307.503c-1.024 7.599 2.108 15.164 8.205 19.814l-25.869 33.929c-18.291-13.948-27.691-36.642-24.623-59.439l42.287 5.696zM853.589 265.344c-11.371 13.897-19.081 23.347-24.265 30.801-5.295 7.62-6.033 10.573-6.14 11.358l-42.287-5.696c1.51-11.183 7.147-21.026 13.393-30.012 6.362-9.156 15.36-20.13 26.274-33.468l33.024 27.017zM877.53 229.009c-2.185 6.822-5.645 12.604-9.527 18.052-3.759 5.278-8.708 11.311-14.413 18.283l-33.024-27.017c6.063-7.411 9.946-12.173 12.689-16.021 2.62-3.678 3.337-5.367 3.631-6.285l40.644 12.988zM875.285 184.073c6.161 14.217 6.959 30.182 2.244 44.937l-40.644-12.988c1.574-4.919 1.306-10.24-0.747-14.98l39.147-16.969zM847.851 150.302c6.37 6.37 11.895 11.878 16.162 16.755 4.407 5.039 8.427 10.445 11.273 17.015l-39.147 16.969c-0.384-0.883-1.267-2.492-4.241-5.888-3.11-3.558-7.445-7.91-14.217-14.682l30.17-30.17zM809.724 112.175l38.127 38.127-30.17 30.17-38.127-38.127 30.17-30.17zM775.94 84.732c6.571 2.846 11.981 6.865 17.020 11.277 4.881 4.267 10.389 9.792 16.764 16.166l-30.17 30.17c-6.775-6.775-11.127-11.11-14.686-14.225-3.401-2.974-5.009-3.857-5.892-4.241l16.964-39.147zM731.017 82.487c14.75-4.71 30.711-3.917 44.924 2.244l-16.964 39.147c-4.736-2.052-10.057-2.317-14.976-0.747l-12.983-40.644zM694.669 106.436c6.976-5.709 13.009-10.658 18.287-14.421 5.457-3.883 11.234-7.347 18.061-9.527l12.983 40.644c-0.917 0.294-2.607 1.011-6.285 3.635-3.853 2.743-8.614 6.626-16.030 12.693l-27.017-33.024zM694.852 106.291v0zM652.493 136.849c0.789-0.107 3.742-0.845 11.366-6.144 7.454-5.18 16.909-12.898 30.81-24.269l27.017 33.024c-13.342 10.914-24.316 19.917-33.476 26.283-8.99 6.246-18.837 11.887-30.025 13.393l-5.692-42.287zM632.687 128.644c4.651 6.093 12.211 9.225 19.806 8.205l5.692 42.287c-22.793 3.063-45.474-6.332-59.418-24.614l33.92-25.877zM624.371 77.308c1.788 17.873 3.017 30.016 4.625 38.955 1.647 9.143 3.209 11.75 3.691 12.382l-33.92 25.877c-6.848-8.973-9.826-19.93-11.763-30.703-1.975-10.978-3.371-25.109-5.090-42.266l42.458-4.245zM615.599 34.658c3.285 6.366 4.924 12.907 6.033 19.511 1.075 6.396 1.843 14.165 2.739 23.138l-42.458 4.245c-0.951-9.536-1.574-15.65-2.359-20.318-0.747-4.454-1.434-6.161-1.873-7.014l37.918-19.563zM582.259 4.484c14.396 5.696 26.24 16.414 33.34 30.174l-37.918 19.563c-2.368-4.587-6.315-8.162-11.115-10.061l15.693-39.676zM538.948 0c9.020 0 16.823-0.013 23.296 0.422 6.682 0.444 13.35 1.429 20.015 4.062l-15.693 39.676c-0.896-0.354-2.658-0.866-7.168-1.169-4.719-0.311-10.863-0.324-20.45-0.324v-42.667zM485.043 0h53.905v42.667h-53.905v-42.667zM441.745 4.484c6.665-2.637 13.329-3.618 20.011-4.062 6.473-0.435 14.276-0.422 23.287-0.422v42.667c-9.579 0-15.723 0.013-20.442 0.324-4.506 0.303-6.272 0.815-7.168 1.169l-15.689-39.676zM408.4 34.662c7.098-13.764 18.945-24.486 33.345-30.178l15.689 39.676c-4.8 1.899-8.747 5.474-11.115 10.061l-37.919-19.558zM399.631 77.299c0.897-8.969 1.662-16.734 2.736-23.13 1.109-6.605 2.749-13.141 6.033-19.507l37.919 19.558c-0.439 0.858-1.126 2.56-1.873 7.014-0.785 4.663-1.408 10.778-2.359 20.309l-42.456-4.245zM391.313 128.627c0.483-0.631 2.048-3.238 3.692-12.378 1.608-8.939 2.838-21.082 4.625-38.95l42.456 4.245c-1.715 17.156-3.115 31.283-5.090 42.261-1.937 10.773-4.915 21.726-11.761 30.703l-33.922-25.882zM371.508 136.832c7.596 1.020 15.156-2.112 19.805-8.205l33.922 25.882c-13.946 18.278-36.626 27.674-59.414 24.61l5.687-42.287zM329.331 106.419c13.9 11.371 23.356 19.089 30.812 24.269 7.626 5.299 10.576 6.037 11.366 6.144l-5.687 42.287c-11.188-1.506-21.038-7.147-30.028-13.393-9.16-6.366-20.137-15.369-33.48-26.287l27.018-33.020zM329.994 106.982v0zM292.98 82.47c6.825 2.18 12.606 5.641 18.060 9.527 5.28 3.759 11.313 8.713 18.29 14.421l-27.018 33.020c-7.415-6.067-12.177-9.95-16.029-12.693-3.679-2.62-5.368-3.341-6.286-3.631l12.983-40.644zM248.061 84.71c14.209-6.157 30.168-6.955 44.919-2.24l-12.983 40.644c-4.917-1.574-10.237-1.306-14.973 0.747l-16.963-39.151zM214.274 112.158c6.375-6.374 11.885-11.904 16.765-16.171 5.040-4.407 10.448-8.431 17.023-11.277l16.963 39.151c-0.884 0.38-2.494 1.267-5.893 4.237-3.56 3.115-7.912 7.454-14.687 14.229l-30.17-30.17zM176.154 150.276l38.12-38.118 30.17 30.17-38.12 38.118-30.17-30.17zM148.708 184.064c2.849-6.575 6.868-11.985 11.277-17.024 4.269-4.881 9.795-10.389 16.169-16.764l30.17 30.17c-6.775 6.775-11.112 11.127-14.225 14.686-2.974 3.401-3.858 5.009-4.241 5.892l-39.15-16.96zM146.468 228.983c-4.712-14.754-3.916-30.711 2.24-44.919l39.15 16.96c-2.052 4.736-2.317 10.057-0.747 14.976l-40.643 12.983zM170.416 265.331c-5.709-6.976-10.659-13.009-14.421-18.287-3.886-5.457-7.347-11.238-9.527-18.061l40.643-12.983c0.293 0.917 1.012 2.607 3.633 6.285 2.744 3.853 6.626 8.614 12.693 16.030l-33.022 27.017zM200.829 307.507c-0.106-0.789-0.844-3.738-6.144-11.366-5.182-7.454-12.897-16.909-24.27-30.81l33.022-27.017c10.917 13.342 19.918 24.32 26.284 33.481 6.248 8.986 11.888 18.837 13.393 30.025l-42.286 5.687zM192.625 327.313c6.094-4.646 9.225-12.207 8.204-19.806l42.286-5.687c3.066 22.788-6.33 45.47-24.611 59.418l-25.879-33.924zM141.298 335.629c17.87-1.783 30.011-3.017 38.947-4.625 9.14-1.643 11.747-3.209 12.38-3.691l25.879 33.924c-8.975 6.844-19.928 9.822-30.702 11.759-10.978 1.975-25.105 3.375-42.258 5.090l-4.245-42.458zM98.663 344.401c6.368-3.285 12.902-4.924 19.506-6.033 6.394-1.075 14.159-1.839 23.129-2.739l4.245 42.458c-9.533 0.951-15.645 1.574-20.309 2.359-4.454 0.747-6.157 1.434-7.014 1.873l-19.558-37.918zM68.483 377.749c5.694-14.404 16.417-26.253 30.18-33.348l19.558 37.918c-4.588 2.368-8.162 6.315-10.060 11.115l-39.678-15.684zM64 421.043c0-9.015-0.011-16.815 0.421-23.287 0.446-6.677 1.428-13.346 4.062-20.006l39.678 15.684c-0.354 0.9-0.867 2.662-1.168 7.168-0.315 4.719-0.326 10.863-0.326 20.442h-42.667zM64 474.953v-53.909h42.667v53.909h-42.667zM68.486 518.259c-2.636-6.665-3.618-13.333-4.064-20.015-0.432-6.473-0.421-14.276-0.421-23.292h42.667c0 9.583 0.011 15.727 0.326 20.446 0.301 4.51 0.814 6.272 1.169 7.168l-39.676 15.693zM98.657 551.598c-13.759-7.098-24.478-18.943-30.172-33.338l39.676-15.693c1.898 4.8 5.471 8.747 10.057 11.115l-19.562 37.917zM141.303 560.37c-8.972-0.897-16.739-1.663-23.135-2.737-6.605-1.109-13.142-2.75-19.511-6.036l19.561-37.917c0.857 0.439 2.56 1.126 7.015 1.873 4.665 0.785 10.778 1.408 20.314 2.359l-4.245 42.456zM143.426 560.476v0 0zM143.427 560.476v0 0zM192.644 568.69c-0.633-0.483-3.241-2.048-12.383-3.694-8.938-1.609-21.083-2.839-38.957-4.627l4.245-42.456c17.158 1.719 31.289 3.115 42.269 5.090 10.777 1.941 21.732 4.919 30.709 11.767l-25.884 33.919zM200.846 588.491c1.021-7.594-2.11-15.152-8.201-19.8l25.883-33.919c18.274 13.945 27.666 36.619 24.605 59.401l-42.287-5.682zM170.423 630.68c11.376-13.904 19.094-23.362 24.277-30.821 5.302-7.628 6.039-10.579 6.145-11.369l42.287 5.682c-1.504 11.191-7.145 21.044-13.394 30.036-6.368 9.163-15.372 20.143-26.292 33.49l-33.022-27.018zM146.467 667.045c2.18-6.828 5.643-12.611 9.53-18.067 3.764-5.283 8.716-11.317 14.426-18.298l33.022 27.018c-6.070 7.419-9.954 12.183-12.699 16.036-2.622 3.68-3.341 5.37-3.634 6.288l-40.645-12.978zM148.707 711.948c-6.153-14.205-6.948-30.157-2.24-44.904l40.645 12.978c-1.569 4.916-1.304 10.233 0.747 14.968l-39.152 16.958zM176.161 745.748c-6.377-6.377-11.904-11.889-16.175-16.771-4.41-5.042-8.431-10.452-11.28-17.029l39.152-16.958c0.383 0.885 1.267 2.495 4.242 5.895 3.115 3.561 7.453 7.915 14.231 14.692l-30.17 30.17zM214.276 783.863l-38.115-38.115 30.17-30.17 38.115 38.115-30.17 30.17zM214.276 783.863v0 0zM248.063 811.309c-6.575-2.849-11.982-6.868-17.022-11.277-4.88-4.269-10.39-9.795-16.765-16.169l30.17-30.17c6.775 6.775 11.127 11.112 14.687 14.225 3.4 2.974 5.009 3.858 5.893 4.241l-16.963 39.15zM292.982 813.55c-14.751 4.712-30.71 3.916-44.919-2.24l16.963-39.15c4.736 2.052 10.056 2.317 14.973 0.747l12.983 40.643zM329.336 789.599c-6.979 5.709-13.012 10.66-18.293 14.423-5.454 3.886-11.235 7.348-18.061 9.528l-12.983-40.643c0.918-0.293 2.607-1.012 6.287-3.634 3.852-2.745 8.616-6.627 16.032-12.696l27.018 33.022zM371.506 759.188c-0.788 0.106-3.738 0.844-11.363 6.144-7.455 5.181-16.909 12.896-30.807 24.268l-27.018-33.022c13.341-10.915 24.317-19.916 33.474-26.281 8.988-6.247 18.834-11.887 30.019-13.393l5.695 42.285zM391.317 767.393c-4.649-6.096-12.212-9.229-19.811-8.206l-5.695-42.285c22.795-3.070 45.484 6.328 59.432 24.617l-33.927 25.873zM399.631 818.707c-1.786-17.865-3.016-30.003-4.623-38.936-1.644-9.137-3.208-11.744-3.691-12.378l33.927-25.873c6.842 8.974 9.82 19.923 11.757 30.695 1.975 10.975 3.371 25.097 5.086 42.246l-42.455 4.246zM408.396 861.331c-3.283-6.366-4.922-12.899-6.030-19.501-1.073-6.392-1.839-14.156-2.735-23.122l42.455-4.246c0.951 9.531 1.574 15.641 2.359 20.304 0.747 4.453 1.429 6.156 1.873 7.012l-37.923 19.554zM441.754 891.52c-14.404-5.694-26.258-16.42-33.357-30.188l37.923-19.554c2.368 4.589 6.315 8.165 11.119 10.063l-15.684 39.68zM485.039 896c-9.011 0-16.815 0.011-23.279-0.421-6.682-0.446-13.346-1.427-20.006-4.060l15.684-39.68c0.896 0.354 2.658 0.867 7.164 1.167 4.719 0.315 10.859 0.326 20.437 0.326v42.667zM538.957 896h-53.918v-42.667h53.918v42.667zM582.251 891.517c-6.66 2.634-13.329 3.616-20.006 4.062-6.473 0.432-14.272 0.421-23.287 0.421v-42.667c9.579 0 15.723-0.011 20.442-0.326 4.506-0.301 6.268-0.814 7.168-1.168l15.684 39.678zM615.599 861.337c-7.095 13.763-18.944 24.486-33.348 30.18l-15.684-39.678c4.8-1.898 8.747-5.472 11.115-10.060l37.918 19.558zM661.333 448c0-82.475-66.859-149.333-149.333-149.333v-42.667c106.039 0 192 85.961 192 192h-42.667zM512 597.333c82.475 0 149.333-66.859 149.333-149.333h42.667c0 106.039-85.961 192-192 192v-42.667zM362.667 448c0 82.475 66.859 149.333 149.333 149.333v42.667c-106.039 0-192-85.961-192-192h42.667zM512 298.667c-82.475 0-149.333 66.859-149.333 149.333h-42.667c0-106.039 85.961-192 192-192v42.667z" />
        </symbol>
        <symbol id="trash" viewBox="0 0 1088 1088">
            <path fill="currentColor"
                d="M405.333 576c-11.782 0-21.333-9.551-21.333-21.333v0-298.667c0-11.782 9.551-21.333 21.333-21.333v0c11.782 0 21.333 9.551 21.333 21.333v0 298.667c0 11.782-9.551 21.333-21.333 21.333v0zM618.667 576c-11.782 0-21.333-9.551-21.333-21.333v0-298.667c0-11.782 9.551-21.333 21.333-21.333v0c11.782 0 21.333 9.551 21.333 21.333v0 298.667c0 11.782-9.551 21.333-21.333 21.333v0zM128 704v-42.667c59.924 0 85.664-1.45 99.583-10.75 6.989-4.67 12.997-10.678 17.667-17.667 9.3-13.919 10.75-39.66 10.75-99.583v-234.667c0-40.226-0.116-70.846 3.333-96.5s11.374-47.707 27.917-64.25c16.543-16.544 38.596-24.467 64.25-27.917s56.273-3.333 96.5-3.333h128c40.226 0 70.846-0.115 96.5 3.334s47.707 11.373 64.25 27.917c16.543 16.543 24.467 38.596 27.917 64.25s3.333 56.274 3.333 96.5v234.667c0 59.924 1.449 85.665 10.75 99.583 4.668 6.988 10.678 12.997 17.667 17.667 13.916 9.299 39.658 10.75 99.583 10.75v42.667zM275.917 661.333h472.167c-1.37-1.792-3.494-2.869-4.75-4.75-19.465-29.128-18-63.326-18-123.25v-234.667c0-40.226-0.115-69.929-2.917-90.75-2.799-20.821-7.383-31.383-15.833-39.833s-19.013-13.034-39.833-15.833c-20.82-2.799-50.524-2.917-90.75-2.917h-128c-40.227 0-69.929 0.117-90.75 2.917s-31.383 7.383-39.833 15.833c-8.451 8.451-13.034 19.013-15.833 39.833s-2.917 50.524-2.917 90.75v234.667c0 59.924 1.462 94.123-18 123.25-1.257 1.881-3.38 2.958-4.75 4.75zM512 874.667c-46.223 0-77.526-11.819-97.167-24.917s-28.583-29.583-28.583-29.583c-1.405-2.767-2.228-6.034-2.228-9.493 0-8.312 4.753-15.513 11.69-19.035l0.121-0.056c2.776-1.416 6.054-2.245 9.526-2.245 8.286 0 15.468 4.724 19.001 11.625l0.056 0.12c0 0 1.725 4.925 14.083 13.167s34.39 17.75 73.5 17.75c39.111 0 61.141-9.511 73.5-17.75s14.083-13.083 14.083-13.083c3.577-7.058 10.779-11.812 19.091-11.812 3.459 0 6.726 0.823 9.615 2.284l-0.122-0.056c7.058 3.577 11.812 10.779 11.812 19.091 0 3.459-0.823 6.726-2.284 9.615l0.056-0.122c0 0-8.942 16.489-28.583 29.583s-50.945 24.917-97.167 24.917z" />
        </symbol>
    </defs>
</svg>
